<svg height="51" viewBox="0 0 30 51" width="30" xmlns="http://www.w3.org/2000/svg"><g fill="none" fill-rule="evenodd"><g transform="translate(1.607143 16.46875)"><path d="m0 0h26.7857143l-2.4868648 32.0598317c-.1081938 1.394799-1.2715601 2.4714183-2.6705491 2.4714183h-16.47088653c-1.39898902 0-2.56235525-1.0766193-2.6705491-2.4714183z" fill="#fff" fill-rule="evenodd"/><path d="m.57887866.53571429 2.44209593 31.48268681c.08655508 1.1158392 1.01724806 1.9771346 2.13643928 1.9771346h16.47088653c1.1191912 0 2.0498842-.8612954 2.1364393-1.9771346l2.4420959-31.48268681z" stroke="#000" stroke-width="1.071429"/><path d="m3.34493352 4.14095831c2.43946398 1.73410549 4.71740493 2.60115824 6.83382288 2.60115824 3.5765109 0 4.1161612-2.3539089 7.7680421-3.30141789 2.4345872-.63167267 4.4690744-.08143635 6.1034616 1.65070894l-1.5732141 26.0017343c-.051329.8483542-.7543037 1.5100815-1.6042093 1.5100815h-14.75320438c-.8402926 0-1.53874177-.6473129-1.6025086-1.4851825l-2.0167865-26.49973429-.000072.00000548c-.02245531-.29505345.19852914-.55244516.49358259-.57490047.12483091-.00950037.24904757.02501235.35108571.09754669z" fill="#c78e58"/></g><path d="m2.41350734 17c.14254456-6.7722887 5.7231291-12.21875 12.58649266-12.21875 6.8633636 0 12.4439481 5.4464613 12.5864927 12.21875z" fill="#fff" stroke="#f52828" stroke-width="1.071429"/><path d="m13.9285714 0h2.1428572c.2958668 0 .5357143.23984746.5357143.53571429v19.81116231c-.4020312.4472561-.7591741.7482972-1.0714286.9031234-.227008.1125581-.6664991.3772688-1.3184732.7941321l.0000471.0000737c-.2493103.1594056-.58064.0865234-.7400456-.1627869-.0551036-.086182-.0843855-.1863368-.0843855-.2886293v-21.05707531c0-.29586683.2398475-.53571429.5357143-.53571429z" fill="#fff" fill-rule="evenodd"/><path d="m16.0714286 20.1373546v-19.60164031h-2.1428572v21.05707531l.0000138.0000471.0000737-.0000471c.6684227-.4273803 1.1188023-.6986493 1.3690779-.8227443.2102774-.1042626.4715615-.3150643.7736918-.6326907z" stroke="#000" stroke-width="1.071429"/><path d="m2.41350734 17c.14254456-6.7722887 5.7231291-12.21875 12.58649266-12.21875 6.8633636 0 12.4439481 5.4464613 12.5864927 12.21875z" stroke="#000" stroke-width="1.071429"/><rect fill="#d8d8d8" fill-rule="evenodd" height="1.0625" rx=".53125" width="30" y="16.46875"/><rect height="1" rx=".5" stroke="#000" stroke-width=".75" width="29.25" x=".375" y="16.84375"/><g fill="#000" stroke="#fff" stroke-width=".803571"><ellipse cx="19.821428" cy="44.09375" rx="2.142857" ry="2.125"/><ellipse cx="21.428571" cy="46.21875" rx="2.142857" ry="2.125"/><ellipse cx="15.535714" cy="44.625" rx="2.142857" ry="2.125"/><ellipse cx="10.714285" cy="43.03125" rx="2.142857" ry="2.125"/><ellipse cx="18.214285" cy="46.75" rx="2.142857" ry="2.125"/><ellipse cx="8.571428" cy="46.21875" rx="2.142857" ry="2.125"/><ellipse cx="12.857142" cy="46.75" rx="2.142857" ry="2.125"/></g></g></svg>