<?xml version="1.0" encoding="UTF-8"?>
<svg width="30px" height="51px" viewBox="0 0 30 51" version="1.1" xmlns="http://www.w3.org/2000/svg" xmlns:xlink="http://www.w3.org/1999/xlink">
    <!-- Generator: Sketch 46.2 (44496) - http://www.bohemiancoding.com/sketch -->
    <title>Bubble Tea</title>
    <desc>Created with Sketch.</desc>
    <defs>
        <path d="M0,0 L26.7857143,0 L24.2988495,32.0598317 L24.2988495,32.0598317 C24.1906557,33.4546307 23.0272894,34.53125 21.6283004,34.53125 L5.15741387,34.53125 L5.15741387,34.53125 C3.75842485,34.53125 2.59505862,33.4546307 2.48686477,32.0598317 L0,0 Z" id="path-1"></path>
        <path d="M13.9285714,0 L16.0714286,0 L16.0714286,0 C16.3672954,-5.4349855e-17 16.6071429,0.239847455 16.6071429,0.535714286 L16.6071429,20.3468766 C16.2051117,20.7941327 15.8479688,21.0951738 15.5357143,21.25 C15.3087063,21.3625581 14.8692152,21.6272688 14.2172411,22.0441321 L14.2172882,22.0442058 C13.9679779,22.2036114 13.6366482,22.1307292 13.4772426,21.8814189 C13.422139,21.7952369 13.3928571,21.6950821 13.3928571,21.5927896 L13.3928571,0.535714286 L13.3928571,0.535714286 C13.3928571,0.239847455 13.6327046,-8.33828565e-16 13.9285714,-8.8817842e-16 Z" id="path-2"></path>
        <rect id="path-3" x="0" y="16.46875" width="30" height="1.0625" rx="0.53125"></rect>
    </defs>
    <g id="Page-1" stroke="none" stroke-width="1" fill="none" fill-rule="evenodd">
        <g id="Bubble-Tea">
            <g id="Cup" transform="translate(1.607143, 16.468750)">
                <g id="Rectangle-8">
                    <use fill="#FFFFFF" fill-rule="evenodd" xlink:href="#path-1"></use>
                    <path stroke="#000000" stroke-width="1.07142857" d="M0.578878655,0.535714286 L3.02097459,32.0184011 C3.10752967,33.1342403 4.03822265,33.9955357 5.15741387,33.9955357 L21.6283004,33.9955357 C22.7474916,33.9955357 23.6781846,33.1342403 23.7647397,32.0184011 L26.2068356,0.535714286 L0.578878655,0.535714286 Z"></path>
                </g>
                <path d="M3.34493352,4.14095831 C5.7843975,5.8750638 8.06233845,6.74211655 10.1787564,6.74211655 C13.7552673,6.74211655 14.2949176,4.38820765 17.9467985,3.44069866 C20.3813857,2.80902599 22.4158729,3.35926231 24.0502601,5.0914076 L22.477046,31.0931419 L22.477046,31.0931419 C22.425717,31.9414961 21.7227423,32.6032234 20.8728367,32.6032234 L6.11963232,32.6032234 L6.11963232,32.6032234 C5.27933972,32.6032234 4.58089055,31.9559105 4.51712372,31.1180409 L2.50033722,4.61830661 L2.50026522,4.61831209 C2.47780991,4.32325864 2.69879436,4.06586693 2.99384781,4.04341162 C3.11867872,4.03391125 3.24289538,4.06842397 3.34493352,4.14095831 Z" id="Rectangle-8" fill="#B297BE"></path>
            </g>
            <path d="M2.41350734,17 C2.5560519,10.2277113 8.13663644,4.78125 15,4.78125 C21.8633636,4.78125 27.4439481,10.2277113 27.5864927,17 L2.41350734,17 Z" id="Combined-Shape" stroke="#F52828" stroke-width="1.07142857" fill="#FFFFFF"></path>
            <g id="Rectangle-10">
                <use fill="#FFFFFF" fill-rule="evenodd" xlink:href="#path-2"></use>
                <path stroke="#000000" stroke-width="1.07142857" d="M16.0714286,20.1373546 L16.0714286,0.535714286 L13.9285714,0.535714286 L13.9285714,21.5927896 L13.9285852,21.5928367 L13.9286589,21.5927896 C14.5970816,21.1654093 15.0474612,20.8941403 15.2977368,20.7700453 C15.5080142,20.6657827 15.7692983,20.454981 16.0714286,20.1373546 Z"></path>
            </g>
            <path d="M2.41350734,17 C2.5560519,10.2277113 8.13663644,4.78125 15,4.78125 C21.8633636,4.78125 27.4439481,10.2277113 27.5864927,17 L2.41350734,17 Z" id="Combined-Shape" stroke="#000000" stroke-width="1.07142857"></path>
            <g id="Rectangle-9">
                <use fill="#D8D8D8" fill-rule="evenodd" xlink:href="#path-3"></use>
                <rect stroke="#000000" stroke-width="0.75" x="0.375" y="16.84375" width="29.25" height="1" rx="0.5"></rect>
            </g>
            <g id="Boba" transform="translate(6.428571, 40.906250)" stroke="#FFFFFF" stroke-width="0.803571429" fill="#000000">
                <ellipse id="Oval-5" cx="13.3928571" cy="3.1875" rx="2.14285714" ry="2.125"></ellipse>
                <ellipse id="Oval-5" cx="15" cy="5.3125" rx="2.14285714" ry="2.125"></ellipse>
                <ellipse id="Oval-5" cx="9.10714286" cy="3.71875" rx="2.14285714" ry="2.125"></ellipse>
                <ellipse id="Oval-5" cx="4.28571429" cy="2.125" rx="2.14285714" ry="2.125"></ellipse>
                <ellipse id="Oval-5" cx="11.7857143" cy="5.84375" rx="2.14285714" ry="2.125"></ellipse>
                <ellipse id="Oval-5" cx="2.14285714" cy="5.3125" rx="2.14285714" ry="2.125"></ellipse>
                <ellipse id="Oval-5" cx="6.42857143" cy="5.84375" rx="2.14285714" ry="2.125"></ellipse>
            </g>
        </g>
    </g>
</svg>